<svg xmlns="http://www.w3.org/2000/svg" width="38" height="38" viewBox="0 0 38 38">
  <g id="icons8-facebook_1_" data-name="icons8-facebook (1)" transform="translate(-5 -5)">
    <path id="Path_2" data-name="Path 2" d="M24,5A19,19,0,1,0,43,24,19,19,0,0,0,24,5Z" fill="#039be5"/>
    <path id="Path_3" data-name="Path 3" d="M26.572,29.036h4.917l.772-4.995h-5.69v-2.73c0-2.075.678-3.915,2.619-3.915h3.119V13.037a26.494,26.494,0,0,0-3.9-.236c-4.573,0-7.254,2.415-7.254,7.917v3.323h-4.7v5h4.7V42.765A19.039,19.039,0,0,0,24,43a19.125,19.125,0,0,0,2.572-.194Z" fill="#fff"/>
  </g>
</svg>
