<svg xmlns="http://www.w3.org/2000/svg" width="38.523" height="28.892" viewBox="0 0 38.523 28.892">
  <g id="icons8-gmail" transform="translate(-2 -7.5)">
    <path id="Path_4" data-name="Path 4" d="M5.064,36.392H37.459a3.064,3.064,0,0,0,3.064-3.064V10.564A3.064,3.064,0,0,0,37.459,7.5H5.064A3.064,3.064,0,0,0,2,10.564V33.328A3.064,3.064,0,0,0,5.064,36.392Z" fill="#e0e0e0"/>
    <path id="Path_5" data-name="Path 5" d="M23.013,36.392H37.459a3.064,3.064,0,0,0,3.064-3.064V10.564A3.064,3.064,0,0,0,37.459,7.5H5.064A3.064,3.064,0,0,0,2,10.564Z" fill="#d9d9d9"/>
    <path id="Path_6" data-name="Path 6" d="M6.745,36.89h31.3a3.064,3.064,0,0,0,3.064-3.064V11.5Z" transform="translate(-0.591 -0.498)" fill="#eee"/>
    <path id="Path_7" data-name="Path 7" d="M24.877,36.89H39.546a3.064,3.064,0,0,0,3.064-3.064V11.5L18.771,29.112Z" transform="translate(-2.088 -0.498)" fill="#e0e0e0"/>
    <path id="Path_8" data-name="Path 8" d="M37.459,9.495H5.064C3.372,9.495,2,9.116,2,10.808V33.572a3.064,3.064,0,0,0,3.064,3.064H6.378V11.684H36.145V36.636h1.313a3.064,3.064,0,0,0,3.064-3.064V10.808C40.523,9.116,39.151,9.495,37.459,9.495Z" transform="translate(0 -0.244)" fill="#ca3737"/>
    <path id="Path_9" data-name="Path 9" d="M37.459,7.5H5.064A3.047,3.047,0,0,0,2,10.564c0,1.056,1.329,1.977,1.329,1.977L21.262,25.235,39.194,12.542s1.329-.922,1.329-1.977A3.047,3.047,0,0,0,37.459,7.5Z" fill="#f5f5f5"/>
    <path id="Path_10" data-name="Path 10" d="M38.112,7.582,21.262,19.33,4.411,7.582A3.041,3.041,0,0,0,2,10.575c0,1.056,1.329,1.977,1.329,1.977L21.262,25.245,39.194,12.552s1.329-.922,1.329-1.977A3.042,3.042,0,0,0,38.112,7.582Z" transform="translate(0 -0.01)" fill="#e84f4b"/>
  </g>
</svg>
