<svg xmlns="http://www.w3.org/2000/svg" width="36" height="36" viewBox="0 0 36 36">
  <g id="icons8-linkedin" transform="translate(-6 -6)">
    <path id="Path_11" data-name="Path 11" d="M42,37a5,5,0,0,1-5,5H11a5,5,0,0,1-5-5V11a5,5,0,0,1,5-5H37a5,5,0,0,1,5,5Z" fill="#0288d1"/>
    <path id="Path_12" data-name="Path 12" d="M12,19h5V36H12Zm2.485-2h-.028A2.393,2.393,0,0,1,12,14.5,2.4,2.4,0,0,1,14.514,12,2.4,2.4,0,0,1,17,14.5,2.407,2.407,0,0,1,14.485,17ZM36,36H31V26.9c0-2.2-1.225-3.7-3.192-3.7a2.867,2.867,0,0,0-2.707,1.99A7.213,7.213,0,0,0,25,27v9H20V19h5v2.616A5.058,5.058,0,0,1,29.738,19C33.316,19,36,21.25,36,26.274V36Z" fill="#fff"/>
  </g>
</svg>
